<svg width="287" height="56" viewBox="0 0 287 56" fill="none" xmlns="http://www.w3.org/2000/svg">
<path d="M0.808 39H8.008L13.096 20.52C14.152 16.824 15.16 12.744 16.12 8.904H16.312C17.32 12.696 18.328 16.824 19.384 20.52L24.472 39H31.912L20.536 3.48H12.184L0.808 39ZM7.864 29.88H24.76V24.408H7.864V29.88ZM35.542 39H42.598V20.52C44.566 18.6 45.958 17.544 48.166 17.544C50.758 17.544 51.958 18.936 51.958 23.16V39H59.014V22.248C59.014 15.528 56.47 11.496 50.71 11.496C47.062 11.496 44.278 13.416 41.974 15.72H41.83L41.254 12.168H35.542V39ZM75.748 39.672C78.532 39.672 81.22 38.184 83.188 36.216H83.332L83.86 39H89.62V0.743998H82.564V10.152L82.852 14.376C80.884 12.6 79.012 11.496 75.988 11.496C70.228 11.496 64.708 16.824 64.708 25.608C64.708 34.44 69.028 39.672 75.748 39.672ZM77.524 33.864C74.02 33.864 71.956 31.128 71.956 25.512C71.956 20.136 74.548 17.256 77.572 17.256C79.252 17.256 80.98 17.832 82.564 19.32V31.128C81.028 33.096 79.444 33.864 77.524 33.864ZM99.4866 49.8C105.535 49.8 108.415 46.152 110.767 39.864L120.319 12.168H113.551L109.807 24.6C109.183 27.144 108.511 29.688 107.935 32.232H107.695C106.879 29.64 106.207 27.048 105.391 24.6L101.167 12.168H94.0146L104.479 38.52L104.047 40.104C103.231 42.504 101.695 44.232 99.0066 44.232C98.3346 44.232 97.6146 43.992 97.1346 43.848L95.8386 49.272C96.8466 49.608 97.9506 49.8 99.4866 49.8ZM126.281 18.696C131.129 16.2 133.529 12.456 133.529 7.56C133.529 3.48 131.897 1.08 128.873 1.08C126.617 1.08 125.033 2.616 125.033 5.064C125.033 7.368 126.761 8.76 128.873 8.76C129.881 8.76 130.793 8.328 131.561 7.656L129.017 4.248L129.353 8.616C129.353 11.88 127.817 13.896 124.649 15.576L126.281 18.696ZM145.503 39.672C152.463 39.672 156.159 35.928 156.159 31.176C156.159 26.232 152.271 24.408 148.719 23.064C145.839 22.056 143.391 21.288 143.391 19.368C143.391 17.784 144.495 16.728 146.943 16.728C148.911 16.728 150.831 17.688 152.703 19.032L155.919 14.808C153.711 13.08 150.639 11.496 146.751 11.496C140.607 11.496 136.767 14.904 136.767 19.656C136.767 24.216 140.559 26.232 143.967 27.576C146.751 28.632 149.583 29.592 149.583 31.56C149.583 33.24 148.335 34.44 145.647 34.44C143.151 34.44 140.895 33.336 138.447 31.464L135.279 35.928C137.919 38.136 141.903 39.672 145.503 39.672ZM203.182 47.736C202.862 47.736 202.542 47.72 202.222 47.688C201.902 47.656 201.566 47.608 201.214 47.544C199.038 47.128 197.07 46.408 195.31 45.384C193.55 44.36 191.966 43.16 190.558 41.784C189.182 40.44 187.918 39.016 186.766 37.512C185.646 36.008 184.622 34.568 183.694 33.192C182.766 31.784 181.902 30.552 181.102 29.496C181.038 29.336 180.958 29.288 180.862 29.352C180.798 29.416 180.766 29.448 180.766 29.448C180.062 30.792 179.406 32.056 178.798 33.24C178.222 34.392 177.79 35.32 177.502 36.024C177.246 36.728 177.118 37.224 177.118 37.512C177.118 37.96 177.294 38.184 177.646 38.184C178.094 38.184 178.574 37.88 179.086 37.272C179.438 36.856 179.758 36.472 180.046 36.12C180.366 35.736 180.638 35.576 180.862 35.64C180.894 35.672 180.91 35.72 180.91 35.784C180.91 35.944 180.798 36.168 180.574 36.456C180.35 36.712 180.222 36.856 180.19 36.888C179.966 37.208 179.662 37.64 179.278 38.184C178.926 38.728 178.542 39.208 178.126 39.624C177.742 40.072 177.326 40.296 176.878 40.296C176.814 40.296 176.622 40.264 176.302 40.2C176.014 40.136 175.726 40.056 175.438 39.96C175.182 39.864 175.038 39.752 175.006 39.624C174.942 39.016 175.086 38.168 175.438 37.08C175.822 35.96 176.334 34.728 176.974 33.384C177.614 32.04 178.27 30.728 178.942 29.448C178.43 29.32 178.062 29.208 177.838 29.112C177.518 28.888 177.358 28.584 177.358 28.2C177.358 27.88 177.486 27.592 177.742 27.336C177.998 27.08 178.382 26.952 178.894 26.952C179.054 26.952 179.246 26.984 179.47 27.048C179.694 27.112 179.87 27.224 179.998 27.384C180.542 26.424 181.022 25.544 181.438 24.744C181.886 23.944 182.206 23.32 182.398 22.872C182.59 22.52 182.718 22.232 182.782 22.008C182.846 21.752 182.878 21.56 182.878 21.432C182.878 21.24 182.846 21.08 182.782 20.952C182.846 20.568 183.07 20.056 183.454 19.416C183.87 18.776 184.382 18.136 184.99 17.496C185.598 16.856 186.254 16.328 186.958 15.912C187.662 15.464 188.318 15.24 188.926 15.24C189.118 15.24 189.406 15.304 189.79 15.432C190.206 15.528 190.59 15.688 190.942 15.912C191.326 16.136 191.566 16.456 191.662 16.872C191.694 16.968 191.71 17.064 191.71 17.16C191.71 17.256 191.678 17.304 191.614 17.304C191.55 17.304 191.454 17.288 191.326 17.256C191.23 17.192 191.15 17.16 191.086 17.16C190.19 17.16 189.182 17.704 188.062 18.792C186.974 19.848 185.854 21.208 184.702 22.872C183.582 24.536 182.526 26.264 181.534 28.056C181.694 28.088 181.87 28.136 182.062 28.2C182.286 28.232 182.542 28.248 182.83 28.248C182.958 28.248 183.07 28.248 183.166 28.248C183.294 28.248 183.422 28.232 183.55 28.2C185.598 27.976 187.678 27.576 189.79 27C191.934 26.424 193.934 25.672 195.79 24.744C197.646 23.816 199.182 22.728 200.398 21.48C201.518 20.296 202.078 19.08 202.078 17.832C202.078 16.904 201.726 16.04 201.022 15.24C200.318 14.44 199.214 13.832 197.71 13.416C196.814 13.16 195.79 12.968 194.638 12.84C193.518 12.712 192.302 12.648 190.99 12.648C188.942 12.648 186.83 12.824 184.654 13.176C182.51 13.528 180.494 14.072 178.606 14.808C176.718 15.512 175.134 16.408 173.854 17.496C172.574 18.584 171.806 19.88 171.55 21.384C171.454 22.152 171.598 22.76 171.982 23.208C172.366 23.656 172.83 24.008 173.374 24.264C173.95 24.488 174.398 24.696 174.718 24.888C174.942 25.08 175.054 25.24 175.054 25.368C175.054 25.592 174.846 25.672 174.43 25.608C173.982 25.512 173.422 25.288 172.75 24.936C172.11 24.584 171.534 24.104 171.022 23.496C170.542 22.856 170.302 22.12 170.302 21.288C170.302 21.16 170.302 21.032 170.302 20.904C170.334 20.776 170.366 20.648 170.398 20.52C170.398 20.488 170.382 20.392 170.35 20.232C170.35 20.04 170.35 19.88 170.35 19.752C170.542 18.76 171.022 17.832 171.79 16.968C172.59 16.072 173.486 15.288 174.478 14.616C175.502 13.912 176.446 13.352 177.31 12.936C178.814 12.2 180.622 11.624 182.734 11.208C184.846 10.76 187.054 10.536 189.358 10.536C190.766 10.536 192.158 10.632 193.534 10.824C194.942 11.016 196.302 11.32 197.614 11.736C199.438 12.344 200.846 13.288 201.838 14.568C202.862 15.816 203.326 17.128 203.23 18.504C203.134 19.816 202.67 21 201.838 22.056C201.038 23.112 199.998 24.04 198.718 24.84C197.47 25.608 196.078 26.28 194.542 26.856C193.038 27.4 191.518 27.848 189.982 28.2C188.734 28.456 187.422 28.664 186.046 28.824C184.67 28.984 183.374 29.096 182.158 29.16C183.534 30.856 184.894 32.568 186.238 34.296C187.614 35.992 189.07 37.592 190.606 39.096C192.174 40.6 193.886 41.88 195.742 42.936C197.598 44.024 199.694 44.792 202.03 45.24C202.51 45.336 203.006 45.384 203.518 45.384C204.35 45.384 205.166 45.256 205.966 45C206.798 44.744 207.486 44.344 208.03 43.8C208.574 43.256 208.846 42.536 208.846 41.64C208.846 41.48 208.83 41.32 208.798 41.16C208.798 41 208.782 40.84 208.75 40.68C208.75 40.616 208.734 40.568 208.702 40.536C208.702 40.504 208.702 40.472 208.702 40.44C208.702 40.152 208.814 40.008 209.038 40.008C209.358 40.008 209.566 40.248 209.662 40.728C209.758 41.208 209.806 41.656 209.806 42.072C209.806 42.552 209.758 43 209.662 43.416C209.598 43.832 209.502 44.216 209.374 44.568C209.086 45.464 208.35 46.216 207.166 46.824C206.014 47.432 204.686 47.736 203.182 47.736ZM200.882 39.72C199.442 39.72 198.194 39.384 197.138 38.712C196.082 38.04 195.554 37.016 195.554 35.64C195.554 34.904 195.778 34.008 196.226 32.952C196.546 32.216 197.138 31.368 198.002 30.408C198.866 29.448 199.874 28.52 201.026 27.624C202.178 26.696 203.346 25.944 204.53 25.368C205.714 24.76 206.786 24.456 207.746 24.456C208.098 24.456 208.418 24.504 208.706 24.6C209.25 24.792 209.618 25.096 209.81 25.512C210.034 25.928 210.146 26.36 210.146 26.808C210.146 27.224 210.082 27.624 209.954 28.008C209.826 28.392 209.666 28.728 209.474 29.016C208.898 29.88 208.066 30.648 206.978 31.32C205.922 31.992 204.834 32.52 203.714 32.904C202.626 33.288 201.73 33.512 201.026 33.576H200.93C200.514 33.576 200.306 33.448 200.306 33.192C200.306 33.032 200.434 32.952 200.69 32.952C201.458 32.888 202.418 32.536 203.57 31.896C204.754 31.224 205.794 30.536 206.69 29.832C207.074 29.512 207.522 29.064 208.034 28.488C208.578 27.912 208.85 27.352 208.85 26.808C208.85 26.232 208.578 25.944 208.034 25.944C207.746 25.944 207.442 26.008 207.122 26.136C206.834 26.264 206.594 26.36 206.402 26.424C205.474 26.872 204.45 27.576 203.33 28.536C202.21 29.464 201.186 30.52 200.258 31.704C199.362 32.856 198.738 34.024 198.386 35.208C198.29 35.464 198.226 35.72 198.194 35.976C198.162 36.2 198.146 36.424 198.146 36.648C198.146 37.416 198.386 37.96 198.866 38.28C199.378 38.6 199.986 38.76 200.69 38.76C201.746 38.76 202.834 38.536 203.954 38.088C205.074 37.608 206.162 37 207.218 36.264C208.274 35.528 209.234 34.744 210.098 33.912C210.994 33.048 211.746 32.216 212.354 31.416C212.45 31.288 212.562 31.224 212.69 31.224C212.818 31.192 212.898 31.208 212.93 31.272C213.058 31.304 213.122 31.4 213.122 31.56C213.122 31.688 213.09 31.816 213.026 31.944C212.13 33.192 211.042 34.408 209.762 35.592C208.514 36.776 207.122 37.768 205.586 38.568C204.082 39.336 202.514 39.72 200.882 39.72ZM217.506 39.528C216.93 39.624 216.354 39.672 215.778 39.672C214.37 39.672 213.202 39.336 212.274 38.664C211.346 37.992 210.882 37.016 210.882 35.736C210.882 34.968 211.106 34.04 211.554 32.952C211.874 32.216 212.466 31.368 213.33 30.408C214.194 29.448 215.202 28.52 216.354 27.624C217.506 26.696 218.674 25.944 219.858 25.368C221.042 24.76 222.114 24.456 223.074 24.456C223.426 24.456 223.746 24.504 224.034 24.6C224.386 24.728 224.69 24.904 224.946 25.128C225.202 25.352 225.33 25.688 225.33 26.136C225.33 26.232 225.33 26.328 225.33 26.424C225.33 26.52 225.298 26.632 225.234 26.76C225.234 26.856 225.154 27.064 224.994 27.384C224.866 27.704 224.706 27.992 224.514 28.248C224.354 28.472 224.21 28.52 224.082 28.392C223.954 28.296 223.89 28.168 223.89 28.008C223.89 27.848 223.922 27.672 223.986 27.48C224.082 27.256 224.13 27.064 224.13 26.904C224.13 26.68 224.066 26.472 223.938 26.28C223.842 26.056 223.666 25.944 223.41 25.944C222.802 25.944 222.018 26.216 221.058 26.76C220.098 27.304 219.106 28.04 218.082 28.968C217.09 29.864 216.194 30.856 215.394 31.944C214.594 33.032 214.034 34.12 213.714 35.208C213.618 35.464 213.554 35.72 213.522 35.976C213.49 36.2 213.474 36.424 213.474 36.648C213.474 37.352 213.698 37.864 214.146 38.184C214.626 38.472 215.202 38.616 215.874 38.616C216.61 38.616 217.362 38.504 218.13 38.28C220.306 37.64 222.066 36.76 223.41 35.64C224.786 34.52 226.162 33.08 227.538 31.32C227.666 31.16 227.778 31.096 227.874 31.128C227.97 31.16 228.05 31.176 228.114 31.176C228.21 31.208 228.258 31.304 228.258 31.464C228.258 31.528 228.242 31.608 228.21 31.704C228.178 31.8 228.146 31.88 228.114 31.944C226.738 33.8 225.218 35.432 223.554 36.84C221.89 38.216 219.874 39.112 217.506 39.528ZM234.379 22.296C233.963 22.296 233.531 22.264 233.083 22.2C232.635 22.104 232.411 21.8 232.411 21.288C232.411 21.192 232.619 20.968 233.035 20.616C233.483 20.264 233.931 19.912 234.379 19.56C234.859 19.176 235.147 18.952 235.243 18.888C235.787 18.44 236.123 18.216 236.251 18.216C236.411 18.216 236.411 18.424 236.251 18.84C236.091 19.256 236.011 19.624 236.011 19.944C236.011 20.104 235.915 20.376 235.723 20.76C235.531 21.144 235.307 21.496 235.051 21.816C234.795 22.136 234.571 22.296 234.379 22.296ZM229.147 39.48C228.571 39.48 228.043 39.352 227.563 39.096C227.115 38.84 226.779 38.36 226.555 37.656C226.523 37.56 226.491 37.464 226.459 37.368C226.459 37.272 226.459 37.16 226.459 37.032C226.459 36.392 226.603 35.592 226.891 34.632C227.179 33.672 227.531 32.744 227.947 31.848C227.755 32.104 227.531 32.424 227.275 32.808C227.019 33.16 226.651 33.624 226.171 34.2C226.043 34.328 225.899 34.392 225.739 34.392C225.515 34.392 225.403 34.264 225.403 34.008C225.403 33.816 225.467 33.656 225.595 33.528C226.427 32.472 227.163 31.528 227.803 30.696C228.475 29.864 228.971 29.16 229.291 28.584C229.291 28.552 229.275 28.536 229.243 28.536C229.243 28.504 229.243 28.472 229.243 28.44C229.243 28.344 229.291 28.2 229.387 28.008C229.643 27.24 229.899 26.6 230.155 26.088C230.443 25.544 230.747 25.24 231.067 25.176C231.131 25.176 231.195 25.176 231.259 25.176C231.323 25.144 231.387 25.128 231.451 25.128C231.803 25.128 232.123 25.208 232.411 25.368C232.699 25.528 232.843 25.768 232.843 26.088C232.843 26.376 232.731 26.728 232.507 27.144C232.315 27.56 232.059 28.072 231.739 28.68C231.035 30.152 230.395 31.496 229.819 32.712C229.275 33.896 228.971 34.872 228.907 35.64C228.875 35.768 228.859 35.896 228.859 36.024C228.859 36.12 228.859 36.232 228.859 36.36C228.859 37.64 229.275 38.28 230.107 38.28C230.619 38.28 231.275 38.008 232.075 37.464C232.875 36.888 233.691 36.2 234.523 35.4C235.355 34.568 236.107 33.784 236.779 33.048C237.483 32.28 237.963 31.704 238.219 31.32C238.315 31.224 238.411 31.176 238.507 31.176C238.635 31.176 238.731 31.224 238.795 31.32C238.891 31.416 238.907 31.544 238.843 31.704C238.555 32.248 238.059 32.936 237.355 33.768C236.683 34.568 235.915 35.384 235.051 36.216C234.219 37.016 233.403 37.704 232.603 38.28C232.187 38.6 231.659 38.872 231.019 39.096C230.411 39.352 229.787 39.48 229.147 39.48ZM229.559 55.416C229.175 55.416 228.983 55.256 228.983 54.936C228.983 54.808 229.031 54.632 229.127 54.408C229.511 53.576 230.055 52.328 230.759 50.664C231.463 49.032 232.247 47.144 233.111 45C233.943 42.888 234.791 40.712 235.655 38.472C236.423 36.488 237.159 34.552 237.863 32.664C238.599 30.776 239.207 29.08 239.687 27.576C240.167 26.04 240.407 24.856 240.407 24.024C240.407 23.768 240.583 23.624 240.935 23.592C241.287 23.528 241.623 23.496 241.943 23.496C242.999 23.496 243.527 23.848 243.527 24.552C243.527 25.128 243.207 25.88 242.567 26.808C241.991 27.736 241.495 28.696 241.079 29.688C240.663 30.648 240.247 31.64 239.831 32.664C240.599 31.64 241.319 30.632 241.991 29.64C242.663 28.648 243.447 27.8 244.343 27.096C245.047 26.552 245.735 26.12 246.407 25.8C247.111 25.448 247.863 25.272 248.663 25.272C249.495 25.272 250.327 25.48 251.159 25.896C251.991 26.28 252.471 26.904 252.599 27.768C252.631 27.864 252.647 27.976 252.647 28.104C252.647 28.2 252.647 28.296 252.647 28.392C252.647 29.512 252.311 30.616 251.639 31.704C250.999 32.76 250.231 33.704 249.335 34.536C248.439 35.368 247.607 36.04 246.839 36.552C246.199 36.936 245.415 37.352 244.487 37.8C243.591 38.248 242.631 38.632 241.607 38.952C240.615 39.272 239.655 39.432 238.727 39.432C238.151 39.432 237.671 39.368 237.287 39.24C236.871 40.2 236.391 41.432 235.847 42.936C235.303 44.472 234.791 45.976 234.311 47.448C234.087 48.088 234.007 48.6 234.071 48.984C234.135 49.4 234.055 49.912 233.831 50.52C233.639 51.16 233.431 51.768 233.207 52.344C232.983 52.952 232.727 53.528 232.439 54.072C232.375 54.2 232.183 54.376 231.863 54.6C231.511 54.824 231.127 55.016 230.711 55.176C230.263 55.336 229.879 55.416 229.559 55.416ZM237.671 38.472C238.695 38.472 239.767 38.232 240.887 37.752C242.007 37.272 243.111 36.632 244.199 35.832C245.287 35.032 246.263 34.168 247.127 33.24C248.023 32.28 248.743 31.352 249.287 30.456C249.927 29.432 250.247 28.488 250.247 27.624C250.247 26.632 249.815 26.136 248.951 26.136C248.727 26.136 248.455 26.184 248.135 26.28C247.815 26.344 247.447 26.488 247.031 26.712C245.335 27.608 243.943 28.664 242.855 29.88C241.767 31.064 240.839 32.376 240.071 33.816C239.303 35.256 238.503 36.808 237.671 38.472ZM259.71 39.72C258.27 39.72 257.022 39.384 255.966 38.712C254.91 38.04 254.382 37.016 254.382 35.64C254.382 34.904 254.606 34.008 255.054 32.952C255.374 32.216 255.966 31.368 256.83 30.408C257.694 29.448 258.702 28.52 259.854 27.624C261.006 26.696 262.174 25.944 263.358 25.368C264.542 24.76 265.614 24.456 266.574 24.456C266.926 24.456 267.246 24.504 267.534 24.6C268.078 24.792 268.446 25.096 268.638 25.512C268.862 25.928 268.974 26.36 268.974 26.808C268.974 27.224 268.91 27.624 268.782 28.008C268.654 28.392 268.494 28.728 268.302 29.016C267.726 29.88 266.894 30.648 265.806 31.32C264.75 31.992 263.662 32.52 262.542 32.904C261.454 33.288 260.558 33.512 259.854 33.576H259.758C259.342 33.576 259.134 33.448 259.134 33.192C259.134 33.032 259.262 32.952 259.518 32.952C260.286 32.888 261.246 32.536 262.398 31.896C263.582 31.224 264.622 30.536 265.518 29.832C265.902 29.512 266.35 29.064 266.862 28.488C267.406 27.912 267.678 27.352 267.678 26.808C267.678 26.232 267.406 25.944 266.862 25.944C266.574 25.944 266.27 26.008 265.95 26.136C265.662 26.264 265.422 26.36 265.23 26.424C264.302 26.872 263.278 27.576 262.158 28.536C261.038 29.464 260.014 30.52 259.086 31.704C258.19 32.856 257.566 34.024 257.214 35.208C257.118 35.464 257.054 35.72 257.022 35.976C256.99 36.2 256.974 36.424 256.974 36.648C256.974 37.416 257.214 37.96 257.694 38.28C258.206 38.6 258.814 38.76 259.518 38.76C260.574 38.76 261.662 38.536 262.782 38.088C263.902 37.608 264.99 37 266.046 36.264C267.102 35.528 268.062 34.744 268.926 33.912C269.822 33.048 270.574 32.216 271.182 31.416C271.278 31.288 271.39 31.224 271.518 31.224C271.646 31.192 271.726 31.208 271.758 31.272C271.886 31.304 271.95 31.4 271.95 31.56C271.95 31.688 271.918 31.816 271.854 31.944C270.958 33.192 269.87 34.408 268.59 35.592C267.342 36.776 265.95 37.768 264.414 38.568C262.91 39.336 261.342 39.72 259.71 39.72ZM271.198 41.4C270.846 41.4 270.494 41.352 270.142 41.256C269.79 41.16 269.534 40.968 269.374 40.68C269.246 40.424 269.262 40.104 269.422 39.72C269.582 39.368 269.806 39.048 270.094 38.76C270.35 38.504 270.67 38.248 271.054 37.992C271.47 37.736 271.902 37.528 272.35 37.368H272.446C272.606 37.368 272.686 37.432 272.686 37.56C272.686 37.656 272.622 37.752 272.494 37.848C271.918 38.136 271.47 38.488 271.15 38.904C270.926 39.16 270.814 39.432 270.814 39.72C270.814 40.232 271.118 40.488 271.726 40.488C272.398 40.488 273.118 40.28 273.886 39.864C274.686 39.48 275.438 38.968 276.142 38.328C276.878 37.656 277.47 36.952 277.918 36.216C278.366 35.48 278.59 34.776 278.59 34.104C278.59 33.656 278.35 33.256 277.87 32.904C277.39 32.52 276.862 32.184 276.286 31.896C275.71 31.576 275.278 31.32 274.99 31.128C274.638 30.872 274.318 30.616 274.03 30.36C273.742 30.072 273.518 29.768 273.358 29.448C273.102 29.896 272.766 30.44 272.35 31.08C271.966 31.688 271.502 32.328 270.958 33C270.766 33.192 270.574 33.288 270.382 33.288C270.19 33.288 270.094 33.208 270.094 33.048C270.094 32.952 270.174 32.792 270.334 32.568C271.198 31.544 271.838 30.6 272.254 29.736C272.67 28.872 272.958 28.216 273.118 27.768C273.246 26.84 273.678 25.96 274.414 25.128C275.15 24.296 276.046 23.576 277.102 22.968C278.158 22.328 279.23 21.832 280.318 21.48C281.438 21.128 282.43 20.952 283.294 20.952C284.158 20.952 284.926 21.112 285.598 21.432C286.27 21.752 286.606 22.264 286.606 22.968C286.606 23.352 286.494 23.768 286.27 24.216C285.982 24.824 285.502 25.368 284.83 25.848C284.798 25.88 284.75 25.896 284.686 25.896C284.43 25.896 284.302 25.784 284.302 25.56C284.302 25.4 284.382 25.24 284.542 25.08C284.798 24.856 285.006 24.584 285.166 24.264C285.326 23.944 285.406 23.64 285.406 23.352C285.406 22.776 285.07 22.488 284.398 22.488C283.918 22.488 283.358 22.584 282.718 22.776C282.078 22.936 281.454 23.144 280.846 23.4C280.27 23.624 279.79 23.832 279.406 24.024C278.606 24.408 277.87 24.888 277.198 25.464C276.526 26.008 275.886 26.696 275.278 27.528C274.862 28.072 274.654 28.584 274.654 29.064C274.654 29.64 275.038 30.168 275.806 30.648C276.606 31.096 277.39 31.528 278.158 31.944C278.958 32.36 279.63 32.808 280.174 33.288C280.718 33.768 280.99 34.344 280.99 35.016C280.99 35.752 280.526 36.632 279.598 37.656C279.022 38.296 278.238 38.904 277.246 39.48C276.286 40.056 275.262 40.52 274.174 40.872C273.086 41.224 272.094 41.4 271.198 41.4Z" fill="#FF5A5F"/>
</svg>
